{"title":"Ghost Rider Spirit of Vengeance 2012 TS V2 XviD Feel-Free","uid":7056649,"size":942273614,"categoryP":"video","categoryS":"movies","magnet":"?xt=urn:btih:6b35343d0ad700a13b7f90ee673c8f068c3253ee&amp;dn=Ghost+Rider+Spirit+of+Vengeance+2012+TS+V2+XviD+Feel-Free&amp;tr=udp%3A%2F%2Ftracker.openbittorrent.com%3A80&amp;tr=udp%3A%2F%2Fopen.demonii.com%3A1337&amp;tr=udp%3A%2F%2Ftracker.coppersurfer.tk%3A6969&amp;tr=udp%3A%2F%2Fexodus.desync.com%3A6969","seeders":1,"leechers":0,"uploader":"MScope40","files":11,"time":1330153080,"description":"Plot:\nAs Johnny Blaze hides out in Eastern Europe, he is called upon to stop the devil, who is trying to take human form.\n\nGenre: Action | Fantasy | Thriller\nLanguage:English\nIMDb:http://www.imdb.com/title/tt1071875/\nSource:720p 26k Thanks!\nEncoder:Tony\n\nFormat : AVI\nFormat/Info : Audio Video Interleave\nFile size : 896 MiB\nDuration : 1h 28mn\nOverall bit rate : 1 422 Kbps\n\nVideo\nID : 0\nFormat : MPEG-4 Visual\nFormat profile : Advanced Simple@L5\nFormat settings, BVOP : 2\nFormat settings, QPel : No\nFormat settings, GMC : No warppoints\nFormat settings, Matrix : Default (H.263)\nMuxing mode : Packed bitstream\nCodec ID : XVID\nCodec ID/Hint : XviD\nDuration : 1h 28mn\nBit rate : 1 219 Kbps\nWidth : 688 pixels\nHeight : 288 pixels\nDisplay aspect ratio : 2.40:1\nFrame rate : 29.970 fps\nColor space : YUV\nChroma subsampling : 4:2:0\nBit depth : 8 bits\nScan type : Progressive\nCompression mode : Lossy\nBits/(Pixel*Frame) : 0.205\nStream size : 768 MiB (86%)\nWriting library : XviD 64\n\nAudio\nID : 1\nFormat : MPEG Audio\nFormat version : Version 1\nFormat profile : Layer 3\nMode : Joint stereo\nMode extension : MS Stereo\nCodec ID : 55\nCodec ID/Hint : MP3\nDuration : 1h 28mn\nBit rate mode : Constant\nBit rate : 192 Kbps\nChannel(s) : 2 channels\nSampling rate : 44.1 KHz\nCompression mode : Lossy\nStream size : 121 MiB (13%)\nAlignment : Split accross interleaves\nInterleave, duration : 33 ms (1.00 video frame)\nInterleave, preload duration : 500 ms\n  &lt;a href=&quot;\nhttp://www.aedes.us/e/w8ic.png&quot; rel=&quot;nofollow&quot; target=&quot;_NEW&quot;&gt;\nhttp://www.aedes.us/e/w8ic.png&lt;/a&gt;\n  &lt;a href=&quot;\nhttp://www.aedes.us/e/wX3.png&quot; rel=&quot;nofollow&quot; target=&quot;_NEW&quot;&gt;\nhttp://www.aedes.us/e/wX3.png&lt;/a&gt;\n  &lt;a href=&quot;\nhttp://www.aedes.us/e/BTOhi.png&quot; rel=&quot;nofollow&quot; target=&quot;_NEW&quot;&gt;\nhttp://www.aedes.us/e/BTOhi.png&lt;/a&gt;\t\t","torrent":{"xt":"urn:btih:6b35343d0ad700a13b7f90ee673c8f068c3253ee","amp;dn":"Ghost+Rider+Spirit+of+Vengeance+2012+TS+V2+XviD+Feel-Free","amp;tr":["udp%3A%2F%2Ftracker.openbittorrent.com%3A80","udp%3A%2F%2Fopen.demonii.com%3A1337","udp%3A%2F%2Ftracker.coppersurfer.tk%3A6969","udp%3A%2F%2Fexodus.desync.com%3A6969"],"infoHash":"6b35343d0ad700a13b7f90ee673c8f068c3253ee","infoHashBuffer":{"type":"Buffer","data":[107,53,52,61,10,215,0,161,59,127,144,238,103,60,143,6,140,50,83,238]},"announce":[],"urlList":[]}}